HIERARCHY
ROOT joint_0
{
	OFFSET 0.000000 0.000000 0.000000
	CHANNELS 6 Xposition Yposition Zposition Zrotation Yrotation Xrotation 
	JOINT joint_1
	{
		OFFSET 6.579712 -2.778931 100.531982
		CHANNELS 3 Zrotation Yrotation Xrotation
		JOINT joint_2
		{
			OFFSET -3.313232 -1.302856 91.974976
			CHANNELS 3 Zrotation Yrotation Xrotation
			JOINT joint_3
			{
				OFFSET -3.421509 -1.641846 91.864014
				CHANNELS 3 Zrotation Yrotation Xrotation
				JOINT joint_4
				{
					OFFSET 7.697388 -4.642578 123.278931
					CHANNELS 3 Zrotation Yrotation Xrotation
					JOINT joint_5
					{
						OFFSET 24.842529 -5.941528 79.695068
						CHANNELS 3 Zrotation Yrotation Xrotation
						End Site
						{
							OFFSET 0.000000 0.000000 0.000000
						}
					}
				}
				JOINT joint_6
				{
					OFFSET -0.159668 -29.112976 68.364014
					CHANNELS 3 Zrotation Yrotation Xrotation
					JOINT joint_7
					{
						OFFSET -18.356079 -115.987061 -20.069092
						CHANNELS 3 Zrotation Yrotation Xrotation
						JOINT joint_8
						{
							OFFSET 31.719482 -11.733276 -267.170898
							CHANNELS 3 Zrotation Yrotation Xrotation
							JOINT joint_9
							{
								OFFSET 29.329956 -5.879517 -234.654053
								CHANNELS 3 Zrotation Yrotation Xrotation
								End Site
								{
									OFFSET 0.000000 0.000000 0.000000
								}
							}
						}
					}
				}
				JOINT joint_10
				{
					OFFSET 8.802979 23.897949 69.798950
					CHANNELS 3 Zrotation Yrotation Xrotation
					JOINT joint_11
					{
						OFFSET 21.159058 115.524292 -19.981934
						CHANNELS 3 Zrotation Yrotation Xrotation
						JOINT joint_12
						{
							OFFSET 18.809204 5.403442 -268.593018
							CHANNELS 3 Zrotation Yrotation Xrotation
							JOINT joint_13
							{
								OFFSET 20.807861 0.421265 -235.639038
								CHANNELS 3 Zrotation Yrotation Xrotation
								End Site
								{
									OFFSET 0.000000 0.000000 0.000000
								}
							}
						}
					}
				}
			}
		}
	}
	JOINT joint_14
	{
		OFFSET -9.713379 -79.513916 -99.348022
		CHANNELS 3 Zrotation Yrotation Xrotation
		JOINT joint_15
		{
			OFFSET -40.607788 -6.518372 -502.938019
			CHANNELS 3 Zrotation Yrotation Xrotation
			JOINT joint_16
			{
				OFFSET -19.807617 -7.437378 -399.590012
				CHANNELS 3 Zrotation Yrotation Xrotation
				JOINT joint_17
				{
					OFFSET 171.701660 -44.751282 -77.782000
					CHANNELS 3 Zrotation Yrotation Xrotation
					End Site
					{
						OFFSET 0.000000 0.000000 0.000000
					}
				}
			}
		}
	}
	JOINT joint_18
	{
		OFFSET 17.854858 79.618652 -98.128052
		CHANNELS 3 Zrotation Yrotation Xrotation
		JOINT joint_19
		{
			OFFSET -24.848877 16.861816 -503.722992
			CHANNELS 3 Zrotation Yrotation Xrotation
			JOINT joint_20
			{
				OFFSET -30.162476 14.470093 -398.750008
				CHANNELS 3 Zrotation Yrotation Xrotation
				JOINT joint_21
				{
					OFFSET 176.096680 -10.987549 -80.021000
					CHANNELS 3 Zrotation Yrotation Xrotation
					End Site
					{
						OFFSET 0.000000 0.000000 0.000000
					}
				}
			}
		}
	}
}
MOTION
Frames: 7
Frame Time: 0.016667
-1579.739014 966.383850 1103.555054 -9.330911 7.838944 -0.413364 -0.761482 1.494410 -0.485626 -0.772875 0.052156 0.105449 -0.806400 0.051718 -0.079813 -0.218233 -5.019201 0.110134 0.000000 0.000000 0.000000 -0.596228 -2.415343 -7.404682 -0.192011 -6.760382 -0.480052 -175.900279 -88.561101 172.426394 0.000000 0.000000 0.000000 0.192822 -7.626864 7.744035 5.733452 5.202779 -5.559745 -175.362333 -61.232761 162.887371 0.000000 0.000000 0.000000 3.663369 -13.837026 -4.430716 2.469932 10.809966 3.770980 2.725438 -0.915135 0.974187 0.000000 0.000000 0.000000 3.807229 -14.086430 -0.164269 4.442540 15.898973 2.829612 3.722722 -4.838884 1.348736 0.000000 0.000000 0.000000 
-1571.113159 966.212646 1104.824951 -10.564089 8.014039 -0.390805 -0.370177 1.764992 -0.517677 -0.392542 -0.049124 0.150032 -0.429433 0.111318 -0.104984 -0.233495 -4.747554 0.126180 0.000000 0.000000 0.000000 -0.963734 -4.530466 -8.403669 -2.187887 -8.005354 -1.182935 -176.766913 -86.905646 177.450357 0.000000 0.000000 0.000000 0.366073 -8.709652 8.424882 7.112530 5.410982 -4.970272 -173.939293 -58.266631 159.837715 0.000000 0.000000 0.000000 4.146937 -13.939141 -4.674489 2.873618 11.307461 3.898112 3.116967 -0.905663 1.148567 0.000000 0.000000 0.000000 4.096038 -14.232165 -0.306031 4.685612 17.072361 3.117908 3.855282 -4.777143 1.405795 0.000000 0.000000 0.000000 
-1560.807861 965.514038 1106.208008 -11.800312 7.918292 -0.287965 0.049959 2.109197 -0.560229 0.007795 -0.219720 0.189359 -0.030177 0.261822 -0.118791 -0.245249 -4.322607 0.140863 0.000000 0.000000 0.000000 -1.641842 -6.623616 -9.421008 -3.919244 -8.869307 -1.312552 -177.647951 -85.982899 -176.846975 0.000000 0.000000 0.000000 0.816087 -8.738753 9.117858 8.674024 5.744941 -4.497393 -172.870418 -56.210714 156.442080 0.000000 0.000000 0.000000 4.610481 -13.393802 -4.957677 3.301288 11.280403 3.952929 3.528827 -0.795481 1.359552 0.000000 0.000000 0.000000 4.330395 -13.655429 -0.434596 4.869148 17.573791 3.233376 3.933357 -4.505184 1.454503 0.000000 0.000000 0.000000 
-1550.077881 964.658264 1107.488037 -12.762341 7.817767 -0.132167 0.355636 2.281508 -0.599918 0.299055 -0.345540 0.213364 0.257667 0.374347 -0.127487 -0.271849 -4.000632 0.217337 0.000000 0.000000 0.000000 -2.185161 -8.249412 -10.178114 -5.095922 -9.511330 -0.998385 -178.274899 -85.611778 -172.316931 0.000000 0.000000 0.000000 1.331661 -8.384850 9.639225 9.829951 6.095638 -4.238564 -172.312485 -54.816315 154.025312 0.000000 0.000000 0.000000 5.023118 -12.944654 -5.308398 3.674432 11.619121 4.054079 3.896783 -0.833715 1.510967 0.000000 0.000000 0.000000 4.499763 -13.011061 -0.613348 5.011844 17.934193 3.285288 3.989172 -4.175556 1.496392 0.000000 0.000000 0.000000 
-1539.132446 963.698547 1108.562012 -13.346516 7.775934 0.110771 0.471360 2.134496 -0.711545 0.420048 -0.377966 0.237551 0.370338 0.398626 -0.139453 -0.333588 -3.849726 0.404796 0.000000 0.000000 0.000000 -2.450612 -9.134037 -10.604286 -5.252734 -9.940935 -0.110384 -178.275307 -86.193377 -170.037772 0.000000 0.000000 0.000000 1.866400 -7.632249 9.933155 10.145751 6.447357 -4.453331 -172.441229 -54.673674 153.303267 0.000000 0.000000 0.000000 5.392275 -12.807374 -5.772112 3.980152 12.664911 4.237818 4.212162 -1.140848 1.565747 0.000000 0.000000 0.000000 4.608537 -12.443360 -0.896284 5.121051 18.261813 3.296717 4.040879 -3.827034 1.536270 0.000000 0.000000 0.000000 
-1527.760376 962.581726 1109.532959 -13.652100 7.721898 0.414305 0.467678 1.817599 -0.829192 0.432990 -0.362995 0.254232 0.373416 0.381133 -0.145697 -0.416320 -3.798594 0.653791 0.000000 0.000000 0.000000 -2.672300 -9.361261 -10.864259 -4.582798 -10.135575 1.146855 -177.760273 -87.302232 -169.364652 0.000000 0.000000 0.000000 2.458046 -6.460814 10.096004 9.966142 6.834421 -4.944822 -172.987289 -55.464282 153.397542 0.000000 0.000000 0.000000 5.716113 -12.749547 -6.296365 4.234343 14.063781 4.469022 4.484560 -1.542413 1.574084 0.000000 0.000000 0.000000 4.655123 -11.799369 -1.233484 5.182985 18.442478 3.263025 4.076558 -3.420367 1.572225 0.000000 0.000000 0.000000 
-1516.586426 961.522949 1110.505005 -13.699490 7.721795 0.649805 0.416943 1.512657 -0.737462 0.394946 -0.322157 0.222741 0.328889 0.345194 -0.124264 -0.494657 -3.889156 0.878209 0.000000 0.000000 0.000000 -3.005874 -9.084554 -11.090459 -3.619301 -10.096860 2.181225 -177.136936 -87.565201 -169.775204 0.000000 0.000000 0.000000 2.980850 -5.503113 10.221677 9.951501 7.267309 -5.217421 -173.283691 -55.657285 153.165753 0.000000 0.000000 0.000000 5.954764 -12.850595 -6.740542 4.405167 15.670965 4.748722 4.676447 -1.852052 1.568257 0.000000 0.000000 0.000000 4.636370 -11.297635 -1.502901 5.192791 18.683865 3.238803 4.077120 -2.999757 1.592652 0.000000 0.000000 0.000000 
